<svg xmlns="http://www.w3.org/2000/svg" viewBox="0 0 512 512" role="img" aria-label="DetourEats">
  <defs>
    <linearGradient id="g" x1="0" y1="0" x2="1" y2="1">
      <stop offset="0" stop-color="#052e16"/>
      <stop offset="1" stop-color="#15803d"/>
    </linearGradient>
  </defs>
  <rect width="512" height="512" rx="116" fill="url(#g)"/>
  <path d="M134 336V176h59c49 0 82 31 82 80s-33 80-82 80h-59zm46-41h12c22 0 36-15 36-39s-14-39-36-39h-12v78z" fill="#ffffff"/>
  <path d="M303 336V176h112v39h-66v22h58v37h-58v23h68v39H303z" fill="#bbf7d0"/>
  <path d="M96 386c56-42 103-50 141-25c31 21 66 20 105-3c32-19 61-21 86-5" fill="none" stroke="#dcfce7" stroke-width="16" stroke-linecap="round" opacity=".9"/>
</svg>